RobotoSerifText-RegularWdth500.ufo
<glyph name="exclam" format="2">
  <advance width="222"/>
  <unicode hex="0021"/>
  <outline>
    <contour>
      <point x="160" y="735" type="line"/>
      <point x="160" y="550"/>
      <point x="136" y="446"/>
      <point x="136" y="205" type="curve"/>
      <point x="84" y="205" type="line"/>
      <point x="84" y="446"/>
      <point x="59" y="549"/>
      <point x="59" y="735" type="curve"/>
    </contour>
    <component base="period"/>
  </outline>
</glyph>
<glyph name="numbersign" format="2">
  <advance width="518.4525"/>
  <unicode hex="0023"/>
  <outline>
    <contour>
      <point x="84.32000000000001" y="0.0" type="line"/>
      <point x="139.0025" y="0.0" type="line"/>
      <point x="255.1325" y="750.0" type="line"/>
      <point x="199.9975" y="750.0" type="line"/>
    </contour>
    <contour>
      <point x="23.384999999999998" y="248.0" type="line"/>
      <point x="448.5675" y="248.0" type="line"/>
      <point x="448.5675" y="312.0" type="line"/>
      <point x="23.384999999999998" y="312.0" type="line"/>
    </contour>
    <contour>
      <point x="59.025" y="458.0" type="line"/>
      <point x="484.65999999999997" y="458.0" type="line"/>
      <point x="484.65999999999997" y="522.0" type="line"/>
      <point x="59.025" y="522.0" type="line"/>
    </contour>
    <contour>
      <point x="249.32" y="0.0" type="line"/>
      <point x="304.0025" y="0.0" type="line"/>
      <point x="420.1325" y="750.0" type="line"/>
      <point x="363.045" y="750.0" type="line"/>
    </contour>
  </outline>
</glyph>
<glyph name="two" format="2">
  <advance width="462"/>
  <unicode hex="0032"/>
  <outline>
    <contour>
      <point x="266.5" y="65.0" type="line" smooth="yes"/>
      <point x="333.525" y="65.0"/>
      <point x="359.645" y="72.0"/>
      <point x="363.2875" y="106.4" type="curve" smooth="yes"/>
      <point x="370.24" y="185.0" type="line"/>
      <point x="420.9" y="185.0" type="line"/>
      <point x="420.9" y="0.0" type="line"/>
      <point x="34.9575" y="0.0" type="line"/>
      <point x="34.9575" y="81.2" type="line"/>
      <point x="176.77" y="191.0"/>
      <point x="313.2575" y="303.6"/>
      <point x="313.2575" y="444.8" type="curve" smooth="yes"/>
      <point x="313.2575" y="530.4"/>
      <point x="278.8475" y="564.8"/>
      <point x="220.6025" y="564.8" type="curve" smooth="yes"/>
      <point x="162.07" y="564.8"/>
      <point x="118.0625" y="526.4"/>
      <point x="93.25" y="477.8" type="curve"/>
      <point x="95.22749999999999" y="515.4"/>
      <point x="106.0875" y="534.8"/>
      <point x="126.6575" y="538.0" type="curve"/>
      <point x="126.6575" y="433.8" type="line"/>
      <point x="47.6025" y="433.8" type="line"/>
      <point x="47.6025" y="524.6" type="line"/>
      <point x="73.29" y="567.8"/>
      <point x="140.48" y="618.0"/>
      <point x="223.215" y="618.0" type="curve" smooth="yes"/>
      <point x="335.7325" y="618.0"/>
      <point x="401.255" y="556.2"/>
      <point x="401.255" y="441.6" type="curve" smooth="yes"/>
      <point x="401.255" y="289.6"/>
      <point x="220.47" y="144.0"/>
      <point x="67.6825" y="41.2" type="curve"/>
      <point x="63.042500000000004" y="44.0"/>
      <point x="60.8025" y="59.6"/>
      <point x="62.707499999999996" y="65.0" type="curve"/>
    </contour>
  </outline>
</glyph>
<glyph name="less" format="2">
  <advance width="462.0"/>
  <unicode hex="003C"/>
  <outline>
    <contour>
      <point x="385.1175" y="542.6" type="line"/>
      <point x="77.7875" y="372.0" type="line"/>
      <point x="77.7875" y="338.0" type="line"/>
      <point x="94.3825" y="322.8" type="line"/>
      <point x="385.1175" y="480.0" type="line"/>
    </contour>
    <contour>
      <point x="385.1175" y="211.6" type="line"/>
      <point x="94.8825" y="369.2" type="line"/>
      <point x="77.7875" y="354.6" type="line"/>
      <point x="77.7875" y="312.4" type="line"/>
      <point x="385.1175" y="141.8" type="line"/>
    </contour>
  </outline>
</glyph>
<glyph name="W" format="2">
  <advance width="838"/>
  <unicode hex="0057"/>
  <anchor x="430.47249999999997" y="741.0" name="top"/>
  <outline>
    <contour>
      <point x="6.6425" y="710.0" type="line"/>
      <point x="6.6425" y="666.4" type="line"/>
      <point x="10.8325" y="666.4" type="line" smooth="yes"/>
      <point x="40.144999999999996" y="666.4"/>
      <point x="58.67" y="663.4"/>
      <point x="65.78999999999999" y="629.4" type="curve" smooth="yes"/>
      <point x="200.20499999999998" y="0.0" type="line"/>
      <point x="295.77" y="0.0" type="line"/>
      <point x="428.40000000000003" y="653.0" type="line"/>
      <point x="414.4475" y="653.0" type="line"/>
      <point x="553.225" y="0.0" type="line"/>
      <point x="646.84" y="0.0" type="line"/>
      <point x="771.3725" y="623.4" type="line" smooth="yes"/>
      <point x="778.635" y="657.4"/>
      <point x="798.28" y="666.4"/>
      <point x="826.425" y="666.4" type="curve" smooth="yes"/>
      <point x="830.52" y="666.4" type="line"/>
      <point x="830.52" y="710.0" type="line"/>
      <point x="642.155" y="710.0" type="line"/>
      <point x="642.155" y="666.4" type="line"/>
      <point x="654.655" y="666.4" type="line" smooth="yes"/>
      <point x="684.3975" y="666.4"/>
      <point x="720.26" y="659.4"/>
      <point x="720.26" y="648.4" type="curve"/>
      <point x="606.3175" y="43.0" type="line"/>
      <point x="620.7225" y="43.0" type="line"/>
      <point x="479.39750000000004" y="710.0" type="line"/>
      <point x="389.52" y="710.0" type="line"/>
      <point x="255.7" y="41.400000000000006" type="line"/>
      <point x="270.915" y="41.400000000000006" type="line"/>
      <point x="148.0875" y="656.4" type="line"/>
      <point x="148.0875" y="663.4"/>
      <point x="185.4975" y="666.4"/>
      <point x="214.8825" y="666.4" type="curve" smooth="yes"/>
      <point x="229.0975" y="666.4" type="line"/>
      <point x="229.0975" y="710.0" type="line"/>
    </contour>
  </outline>
</glyph>
<glyph name="n" format="2">
  <advance width="543"/>
  <unicode hex="006E"/>
  <anchor x="264.0" y="551.0" name="top"/>
  <anchor x="270" y="0.0" name="bottom"/>
  <outline>
    <contour>
      <point x="30" y="0" type="line"/>
      <point x="239" y="0" type="line"/>
      <point x="239" y="41" type="line"/>
      <point x="237" y="41" type="line" smooth="yes"/>
      <point x="215" y="41"/>
      <point x="181" y="44"/>
      <point x="181" y="51" type="curve" smooth="yes"/>
      <point x="181" y="392" type="line"/>
      <point x="173" y="401" type="line"/>
      <point x="173" y="508" type="line"/>
      <point x="30" y="508" type="line"/>
      <point x="30" y="466" type="line"/>
      <point x="38" y="464" type="line" smooth="yes"/>
      <point x="77" y="454"/>
      <point x="95" y="448"/>
      <point x="95" y="419" type="curve" smooth="yes"/>
      <point x="95" y="77" type="line" smooth="yes"/>
      <point x="95" y="48"/>
      <point x="68" y="41"/>
      <point x="31" y="41" type="curve" smooth="yes"/>
      <point x="30" y="41" type="line"/>
    </contour>
    <contour>
      <point x="525" y="0" type="line"/>
      <point x="525" y="41" type="line"/>
      <point x="524" y="41" type="line" smooth="yes"/>
      <point x="487" y="41"/>
      <point x="460" y="48"/>
      <point x="460" y="77" type="curve" smooth="yes"/>
      <point x="460" y="357" type="line" smooth="yes"/>
      <point x="460" y="468"/>
      <point x="406" y="518"/>
      <point x="323" y="518" type="curve" smooth="yes"/>
      <point x="255" y="518"/>
      <point x="209" y="482"/>
      <point x="166" y="408" type="curve"/>
      <point x="166" y="345" type="line"/>
      <point x="206" y="420"/>
      <point x="250" y="461"/>
      <point x="305" y="461" type="curve" smooth="yes"/>
      <point x="357" y="461"/>
      <point x="374" y="425"/>
      <point x="374" y="346" type="curve" smooth="yes"/>
      <point x="374" y="51" type="line" smooth="yes"/>
      <point x="374" y="44"/>
      <point x="340" y="41"/>
      <point x="317" y="41" type="curve" smooth="yes"/>
      <point x="316" y="41" type="line"/>
      <point x="316" y="0" type="line"/>
    </contour>
  </outline>
</glyph>
<glyph name="s" format="2">
  <advance width="397"/>
  <unicode hex="0073"/>
  <anchor x="201" y="546.0" name="top"/>
  <anchor x="204" y="0.0" name="bottom"/>
  <outline>
    <contour>
      <point x="296" y="131" type="curve" smooth="yes"/>
      <point x="296" y="74"/>
      <point x="260" y="42"/>
      <point x="204" y="42" type="curve" smooth="yes"/>
      <point x="151" y="42"/>
      <point x="109" y="59"/>
      <point x="82" y="100" type="curve"/>
      <point x="73" y="77"/>
      <point x="74" y="54"/>
      <point x="108" y="32" type="curve"/>
      <point x="108" y="153" type="line"/>
      <point x="30" y="153" type="line"/>
      <point x="30" y="45" type="line"/>
      <point x="67" y="14"/>
      <point x="123" y="-10"/>
      <point x="204" y="-10" type="curve" smooth="yes"/>
      <point x="312" y="-10"/>
      <point x="375" y="55"/>
      <point x="375" y="140" type="curve" smooth="yes"/>
      <point x="375" y="240"/>
      <point x="303" y="266"/>
      <point x="235" y="287" type="curve" smooth="yes"/>
      <point x="177" y="306"/>
      <point x="123" y="320"/>
      <point x="123" y="383" type="curve" smooth="yes"/>
      <point x="123" y="431"/>
      <point x="150" y="466"/>
      <point x="205" y="466" type="curve" smooth="yes"/>
      <point x="247" y="466"/>
      <point x="282" y="449"/>
      <point x="300" y="417" type="curve"/>
      <point x="308" y="442"/>
      <point x="299" y="461"/>
      <point x="274" y="462" type="curve"/>
      <point x="274" y="371" type="line"/>
      <point x="350" y="371" type="line"/>
      <point x="350" y="474" type="line"/>
      <point x="332" y="492"/>
      <point x="284" y="518"/>
      <point x="205" y="518" type="curve" smooth="yes"/>
      <point x="105" y="518"/>
      <point x="46" y="459"/>
      <point x="46" y="373" type="curve" smooth="yes"/>
      <point x="46" y="272"/>
      <point x="121" y="246"/>
      <point x="189" y="225" type="curve" smooth="yes"/>
      <point x="245" y="207"/>
      <point x="296" y="192"/>
    </contour>
  </outline>
</glyph>
<glyph name="x" format="2">
  <advance width="478"/>
  <unicode hex="0078"/>
  <outline>
    <contour>
      <point x="472" y="0" type="line"/>
      <point x="472" y="42" type="line"/>
      <point x="471" y="42" type="line"/>
      <point x="440" y="42"/>
      <point x="426" y="51"/>
      <point x="409" y="76" type="curve" smooth="yes"/>
      <point x="277" y="276" type="line"/>
      <point x="274" y="280" type="line"/>
      <point x="158" y="458" type="line"/>
      <point x="158" y="464"/>
      <point x="194" y="466"/>
      <point x="226" y="466" type="curve" smooth="yes"/>
      <point x="228" y="466" type="line"/>
      <point x="228" y="508" type="line"/>
      <point x="15" y="508" type="line"/>
      <point x="15" y="465" type="line"/>
      <point x="16" y="465" type="line"/>
      <point x="46" y="465"/>
      <point x="59" y="460"/>
      <point x="73" y="439" type="curve" smooth="yes"/>
      <point x="206" y="238" type="line"/>
      <point x="210" y="235" type="line"/>
      <point x="329" y="51" type="line"/>
      <point x="329" y="44"/>
      <point x="292" y="42"/>
      <point x="259" y="42" type="curve" smooth="yes"/>
      <point x="257" y="42" type="line"/>
      <point x="257" y="0" type="line"/>
    </contour>
    <contour>
      <point x="6" y="0" type="line"/>
      <point x="188" y="0" type="line"/>
      <point x="188" y="42" type="line"/>
      <point x="186" y="42" type="line" smooth="yes"/>
      <point x="155" y="42"/>
      <point x="122" y="50"/>
      <point x="122" y="62" type="curve"/>
      <point x="237" y="236" type="line"/>
      <point x="199" y="267" type="line"/>
      <point x="71" y="80" type="line" smooth="yes"/>
      <point x="52" y="53"/>
      <point x="30" y="42"/>
      <point x="7" y="42" type="curve"/>
      <point x="6" y="42" type="line"/>
    </contour>
    <contour>
      <point x="275" y="246" type="line"/>
      <point x="394" y="421" type="line" smooth="yes"/>
      <point x="417" y="455"/>
      <point x="436" y="466"/>
      <point x="463" y="466" type="curve"/>
      <point x="463" y="466" type="line"/>
      <point x="463" y="508" type="line"/>
      <point x="283" y="508" type="line"/>
      <point x="283" y="466" type="line"/>
      <point x="286" y="466" type="line" smooth="yes"/>
      <point x="315" y="466"/>
      <point x="349" y="458"/>
      <point x="349" y="446" type="curve"/>
      <point x="239" y="281" type="line"/>
    </contour>
  </outline>
</glyph>
<glyph name="asciitilde" format="2">
  <advance width="443.2875"/>
  <unicode hex="007E"/>
  <outline>
    <contour>
      <point x="283.5225" y="268.6" type="curve" smooth="yes"/>
      <point x="345.425" y="268.6"/>
      <point x="377.59" y="322.8"/>
      <point x="396.9225" y="394.4" type="curve"/>
      <point x="347.24" y="408.8" type="line"/>
      <point x="335.7875" y="375.4"/>
      <point x="325.43" y="339.0"/>
      <point x="292.9775" y="339.0" type="curve" smooth="yes"/>
      <point x="246.35750000000002" y="339.0"/>
      <point x="218.0475" y="402.8"/>
      <point x="152.93" y="402.8" type="curve" smooth="yes"/>
      <point x="90.815" y="402.8"/>
      <point x="61.745" y="353.4"/>
      <point x="46.365" y="277.6" type="curve"/>
      <point x="96.595" y="264.2" type="line"/>
      <point x="105.4525" y="301.6"/>
      <point x="114.215" y="333.2"/>
      <point x="144.9525" y="333.2" type="curve" smooth="yes"/>
      <point x="187.5" y="333.2"/>
      <point x="221.83499999999998" y="268.6"/>
    </contour>
  </outline>
</glyph>
<glyph name="cent" format="2">
  <advance width="462.0"/>
  <unicode hex="00A2"/>
  <outline>
    <contour>
      <point x="224.12" y="623.0" type="line"/>
      <point x="224.12" y="490.0" type="line"/>
      <point x="225.82999999999998" y="478.8" type="line"/>
      <point x="225.82999999999998" y="23.8" type="line"/>
      <point x="224.12" y="9.0" type="line"/>
      <point x="224.12" y="-126.0" type="line"/>
      <point x="277.515" y="-126.0" type="line"/>
      <point x="277.515" y="15.600000000000001" type="line"/>
      <point x="275.805" y="27.8" type="line"/>
      <point x="275.805" y="480.0" type="line"/>
      <point x="277.515" y="496.6" type="line"/>
      <point x="277.515" y="623.0" type="line"/>
    </contour>
    <contour>
      <point x="259.73" y="42.0" type="curve" smooth="yes"/>
      <point x="175.6525" y="42.0"/>
      <point x="115.3125" y="124.2"/>
      <point x="115.3125" y="249.0" type="curve" smooth="yes"/>
      <point x="115.3125" y="378.4"/>
      <point x="166.7275" y="465.6"/>
      <point x="255.9" y="465.6" type="curve" smooth="yes"/>
      <point x="317.5" y="465.6"/>
      <point x="361.22249999999997" y="426.5929752961"/>
      <point x="380.0825" y="394.0" type="curve"/>
      <point x="389.45871166080497" y="415.8"/>
      <point x="379.4935807259575" y="443.0"/>
      <point x="352.1275" y="443.6" type="curve"/>
      <point x="352.1275" y="336.6" type="line"/>
      <point x="426.33000000000004" y="336.6" type="line"/>
      <point x="426.33000000000004" y="449.0" type="line"/>
      <point x="404.83000000000004" y="471.5707186997"/>
      <point x="344.9225" y="518.0"/>
      <point x="254.8075" y="518.0" type="curve" smooth="yes"/>
      <point x="120.1675" y="518.0"/>
      <point x="30.075" y="404.4"/>
      <point x="30.075" y="249.0" type="curve" smooth="yes"/>
      <point x="30.075" y="96.6"/>
      <point x="127.835" y="-10.4"/>
      <point x="254.57" y="-10.4" type="curve" smooth="yes"/>
      <point x="345.805" y="-10.4"/>
      <point x="398.5675" y="46.4"/>
      <point x="432.2575" y="114.4" type="curve"/>
      <point x="391.62" y="151.0" type="line"/>
      <point x="365.71937348149" y="102.2"/>
      <point x="332.1175" y="42.0"/>
    </contour>
  </outline>
</glyph>
<glyph name="Thorn" format="2">
  <advance width="539.0325"/>
  <unicode hex="00DE"/>
  <outline>
    <contour>
      <point x="283.75" y="710.0" type="line"/>
      <point x="35.195" y="710.0" type="line"/>
      <point x="35.195" y="666.4" type="line"/>
      <point x="44.1475" y="666.4" type="line" smooth="yes"/>
      <point x="82.7475" y="666.4"/>
      <point x="111.32249999999999" y="659.4"/>
      <point x="111.32249999999999" y="630.4" type="curve" smooth="yes"/>
      <point x="111.32249999999999" y="79.6" type="line" smooth="yes"/>
      <point x="111.32249999999999" y="50.6"/>
      <point x="82.7475" y="43.6"/>
      <point x="44.1475" y="43.6" type="curve" smooth="yes"/>
      <point x="35.195" y="43.6" type="line"/>
      <point x="35.195" y="0.0" type="line"/>
      <point x="283.75" y="0.0" type="line"/>
      <point x="283.75" y="43.6" type="line"/>
      <point x="261.53499999999997" y="43.6" type="line" smooth="yes"/>
      <point x="234.76999999999998" y="43.6"/>
      <point x="200.9325" y="46.6"/>
      <point x="200.9325" y="53.6" type="curve" smooth="yes"/>
      <point x="200.9325" y="656.4" type="line" smooth="yes"/>
      <point x="200.9325" y="663.4"/>
      <point x="234.76999999999998" y="666.4"/>
      <point x="261.53499999999997" y="666.4" type="curve" smooth="yes"/>
      <point x="283.75" y="666.4" type="line"/>
    </contour>
    <contour>
      <point x="148.2975" y="155.0" type="line"/>
      <point x="287.245" y="155.0" type="line" smooth="yes"/>
      <point x="419.8125" y="155.0"/>
      <point x="500.905" y="240.2"/>
      <point x="500.905" y="362.6" type="curve" smooth="yes"/>
      <point x="500.905" y="485.0"/>
      <point x="423.55" y="563.2"/>
      <point x="291.245" y="563.2" type="curve" smooth="yes"/>
      <point x="160.515" y="563.2" type="line"/>
      <point x="148.2975" y="510.0" type="line"/>
      <point x="284.47249999999997" y="510.0" type="line" smooth="yes"/>
      <point x="365.8625" y="510.0"/>
      <point x="406.1975" y="454.8"/>
      <point x="406.1975" y="362.4" type="curve" smooth="yes"/>
      <point x="406.1975" y="269.6"/>
      <point x="364.9575" y="208.2"/>
      <point x="280.615" y="208.2" type="curve" smooth="yes"/>
      <point x="148.2975" y="208.2" type="line"/>
    </contour>
  </outline>
</glyph>
<glyph name="ae" format="2">
  <advance width="701.055"/>
  <unicode hex="00E6"/>
  <anchor x="356.1575" y="555.0" name="top"/>
  <outline>
    <contour>
      <point x="322.0075" y="290.8" type="line"/>
      <point x="134.245" y="279.0"/>
      <point x="38.435" y="234.0"/>
      <point x="38.435" y="124.2" type="curve" smooth="yes"/>
      <point x="38.435" y="40.6"/>
      <point x="96.1975" y="-10.0"/>
      <point x="179.1925" y="-10.0" type="curve" smooth="yes"/>
      <point x="262.4" y="-10.0"/>
      <point x="321.855" y="48.8"/>
      <point x="352.47749999999996" y="145.2" type="curve"/>
      <point x="378.0475" y="184.2"/>
      <point x="327.0075" y="182.0"/>
      <point x="320.78999999999996" y="181.8" type="curve"/>
      <point x="298.0" y="99.6"/>
      <point x="255.5675" y="42.400000000000006"/>
      <point x="198.2275" y="42.400000000000006" type="curve" smooth="yes"/>
      <point x="153.485" y="42.400000000000006"/>
      <point x="125.50500000000001" y="73.2"/>
      <point x="125.50500000000001" y="125.0" type="curve" smooth="yes"/>
      <point x="125.50500000000001" y="202.2"/>
      <point x="184.9175" y="234.2"/>
      <point x="320.65" y="244.0" type="curve"/>
    </contour>
    <contour>
      <point x="505.39750000000004" y="-10.0" type="curve" smooth="yes"/>
      <point x="588.9625" y="-10.0"/>
      <point x="638.65" y="40.4"/>
      <point x="670.2925" y="106.0" type="curve"/>
      <point x="628.965" y="144.2" type="line"/>
      <point x="605.44" y="98.2"/>
      <point x="572.6775" y="41.6"/>
      <point x="510.27" y="41.6" type="curve" smooth="yes"/>
      <point x="435.5075" y="41.6"/>
      <point x="383.57" y="117.6"/>
      <point x="383.57" y="250.0" type="curve" smooth="yes"/>
      <point x="383.57" y="383.4"/>
      <point x="430.745" y="467.2"/>
      <point x="494.5875" y="467.2" type="curve" smooth="yes"/>
      <point x="555.6675" y="467.2"/>
      <point x="583.41" y="402.0"/>
      <point x="585.3625" y="265.0" type="curve"/>
      <point x="608.315" y="290.4" type="line"/>
      <point x="350.28" y="290.4" type="line"/>
      <point x="351.28" y="239.6" type="line"/>
      <point x="673.6475" y="239.6" type="line"/>
      <point x="672.6949999999999" y="425.7717602863"/>
      <point x="609.9375" y="518.8"/>
      <point x="498.2275" y="518.8" type="curve" smooth="yes"/>
      <point x="409.23478991596" y="518.8"/>
      <point x="354.4452405801825" y="449.6"/>
      <point x="327.1375" y="338.6" type="curve"/>
      <point x="317.7603508002775" y="321.0"/>
      <point x="300.8575" y="290.4"/>
      <point x="298.6725" y="252.0" type="curve" smooth="yes"/>
      <point x="298.6725" y="92.0"/>
      <point x="386.9325" y="-10.0"/>
    </contour>
    <contour>
      <point x="217.33" y="518.0" type="curve" smooth="yes"/>
      <point x="143.3125" y="518.0"/>
      <point x="88.7675" y="482.8"/>
      <point x="64.8625" y="458.6" type="curve"/>
      <point x="64.8625" y="360.8" type="line"/>
      <point x="143.6775" y="360.8" type="line"/>
      <point x="143.6775" y="459.8" type="line"/>
      <point x="120.4675" y="450.2"/>
      <point x="103.08500000000001" y="429.4"/>
      <point x="109.60249999999999" y="400.0" type="curve"/>
      <point x="129.4625" y="436.0"/>
      <point x="161.2275" y="466.4"/>
      <point x="215.0675" y="466.4" type="curve" smooth="yes"/>
      <point x="268.86" y="466.4"/>
      <point x="298.6725" y="438.0"/>
      <point x="298.6725" y="350.0" type="curve"/>
      <point x="298.6725" y="274.8" type="line"/>
      <point x="367.085" y="349.6" type="line"/>
      <point x="367.085" y="469.2"/>
      <point x="313.1075" y="518.0"/>
    </contour>
  </outline>
</glyph>
<glyph name="eth" format="2">
  <advance width="498.2725"/>
  <unicode hex="00F0"/>
  <outline>
    <contour>
      <point x="381.6975" y="407.2" type="curve"/>
      <point x="355.34000000000003" y="482.4"/>
      <point x="297.2375" y="518.0"/>
      <point x="242.815" y="518.0" type="curve" smooth="yes"/>
      <point x="128.125" y="518.0"/>
      <point x="36.195" y="413.0"/>
      <point x="36.195" y="256.0" type="curve" smooth="yes"/>
      <point x="36.195" y="99.0"/>
      <point x="123.5725" y="-10.0"/>
      <point x="248.8025" y="-10.0" type="curve" smooth="yes"/>
      <point x="374.91499999999996" y="-10.0"/>
      <point x="462.53" y="112.0"/>
      <point x="462.53" y="293.6" type="curve" smooth="yes"/>
      <point x="462.53" y="484.0"/>
      <point x="381.51205988106" y="661.088245746"/>
      <point x="161.83249999999998" y="753.2" type="curve"/>
      <point x="135.52499999999998" y="715.2" type="line"/>
      <point x="311.9306538909525" y="629.4006797113"/>
      <point x="374.4175" y="483.6"/>
      <point x="374.4175" y="293.6" type="curve" smooth="yes"/>
      <point x="374.4175" y="139.8"/>
      <point x="328.195" y="41.6"/>
      <point x="248.8025" y="41.6" type="curve" smooth="yes"/>
      <point x="171.695" y="41.6"/>
      <point x="125.9025" y="127.8"/>
      <point x="125.9025" y="256.0" type="curve" smooth="yes"/>
      <point x="125.9025" y="383.2"/>
      <point x="179.1275" y="466.4"/>
      <point x="255.9225" y="466.4" type="curve" smooth="yes"/>
      <point x="312.2625" y="466.4"/>
      <point x="354.435" y="425.2"/>
      <point x="397.10749999999996" y="347.6" type="curve"/>
      <point x="410.39" y="376.8"/>
      <point x="406.45336770527" y="395.6"/>
    </contour>
    <contour>
      <point x="102.1175" y="582.6" type="line"/>
      <point x="119.9975" y="537.6" type="line"/>
      <point x="398.85249999999996" y="694.2" type="line"/>
      <point x="380.9725" y="739.2" type="line"/>
    </contour>
  </outline>
</glyph>
<glyph name="oslash" format="2">
  <advance width="510.7275"/>
  <unicode hex="00F8"/>
  <anchor x="253.5" y="551.0" name="top"/>
  <outline>
    <contour>
      <point x="432.47" y="522.0" type="line"/>
      <point x="-0.5974999999999999" y="-14.6" type="line"/>
      <point x="70.11250000000001" y="-14.6" type="line"/>
      <point x="503.18000000000006" y="522.0" type="line"/>
    </contour>
    <contour>
      <point x="255.59000000000003" y="-10.0" type="curve"/>
      <point x="384.01" y="-10.0"/>
      <point x="474.5325" y="97.0"/>
      <point x="474.5325" y="254.0" type="curve" smooth="yes"/>
      <point x="474.5325" y="409.8"/>
      <point x="384.01" y="518.0"/>
      <point x="255.59000000000003" y="518.0" type="curve" smooth="yes"/>
      <point x="126.7175" y="518.0"/>
      <point x="36.195" y="410.8"/>
      <point x="36.195" y="254.0" type="curve" smooth="yes"/>
      <point x="36.195" y="97.0"/>
      <point x="126.7175" y="-10.0"/>
    </contour>
    <contour>
      <point x="255.2575" y="41.6" type="curve"/>
      <point x="167.95999999999998" y="41.6"/>
      <point x="121.73750000000001" y="119.4"/>
      <point x="121.73750000000001" y="254.0" type="curve" smooth="yes"/>
      <point x="121.73750000000001" y="382.6"/>
      <point x="172.5803795706725" y="466.4"/>
      <point x="255.82750000000001" y="466.4" type="curve" smooth="yes"/>
      <point x="342.21466911786" y="466.4"/>
      <point x="388.99" y="388.0"/>
      <point x="388.99" y="254.0" type="curve" smooth="yes"/>
      <point x="388.99" y="124.6"/>
      <point x="338.315" y="41.6"/>
    </contour>
  </outline>
</glyph>
<glyph name="hbar" format="2">
  <advance width="535.8975"/>
  <unicode hex="0127"/>
  <outline>
    <contour>
      <point x="518.1325" y="0.0" type="line"/>
      <point x="518.1325" y="41.4" type="line"/>
      <point x="516.6325" y="41.4" type="line" smooth="yes"/>
      <point x="479.9125" y="41.4"/>
      <point x="452.575" y="48.4"/>
      <point x="452.575" y="77.4" type="curve" smooth="yes"/>
      <point x="452.575" y="357.0" type="line" smooth="yes"/>
      <point x="452.575" y="468.0"/>
      <point x="399.6" y="518.0"/>
      <point x="319.245" y="518.0" type="curve" smooth="yes"/>
      <point x="238.505" y="518.0"/>
      <point x="189.935" y="462.4"/>
      <point x="135.52249999999998" y="348.4" type="curve"/>
      <point x="158.55" y="322.2" type="line"/>
      <point x="196.53250000000003" y="412.0"/>
      <point x="243.23" y="461.0"/>
      <point x="300.7625" y="461.0" type="curve" smooth="yes"/>
      <point x="350.865" y="461.0"/>
      <point x="366.8675" y="425.2"/>
      <point x="366.8675" y="346.0" type="curve" smooth="yes"/>
      <point x="366.8675" y="51.4" type="line" smooth="yes"/>
      <point x="366.8675" y="44.4"/>
      <point x="332.0525" y="41.4"/>
      <point x="310.2875" y="41.4" type="curve" smooth="yes"/>
      <point x="308.8825" y="41.4" type="line"/>
      <point x="308.8825" y="0.0" type="line"/>
    </contour>
    <contour>
      <point x="95.7525" y="735.0" type="line"/>
      <point x="95.7525" y="77.4" type="line" smooth="yes"/>
      <point x="95.7525" y="48.4"/>
      <point x="68.3675" y="41.4"/>
      <point x="31.195" y="41.4" type="curve" smooth="yes"/>
      <point x="29.7425" y="41.4" type="line"/>
      <point x="29.7425" y="0.0" type="line"/>
      <point x="239.945" y="0.0" type="line"/>
      <point x="239.945" y="41.4" type="line"/>
      <point x="237.445" y="41.4" type="line" smooth="yes"/>
      <point x="215.41750000000002" y="41.4"/>
      <point x="181.5075" y="44.4"/>
      <point x="181.5075" y="51.4" type="curve"/>
      <point x="181.5075" y="735.0" type="line"/>
    </contour>
    <contour>
      <point x="339.1125" y="632.8" type="line"/>
      <point x="14.05" y="632.8" type="line"/>
      <point x="14.05" y="585.2" type="line"/>
      <point x="339.1125" y="585.2" type="line"/>
    </contour>
  </outline>
</glyph>
<glyph name="eng" format="2">
  <advance width="514.1600000000001"/>
  <unicode hex="014B"/>
  <outline>
    <contour>
      <point x="29.7425" y="0.0" type="line"/>
      <point x="239.04" y="0.0" type="line"/>
      <point x="239.04" y="41.4" type="line"/>
      <point x="236.54" y="41.4" type="line" smooth="yes"/>
      <point x="214.965" y="41.4"/>
      <point x="180.6025" y="44.4"/>
      <point x="180.6025" y="51.4" type="curve" smooth="yes"/>
      <point x="180.6025" y="392.4" type="line"/>
      <point x="172.72250000000003" y="399.4" type="line"/>
      <point x="172.72250000000003" y="508.0" type="line"/>
      <point x="29.7425" y="508.0" type="line"/>
      <point x="29.7425" y="466.2" type="line"/>
      <point x="37.5525" y="464.2" type="line" smooth="yes"/>
      <point x="76.6775" y="454.2"/>
      <point x="94.8475" y="448.2"/>
      <point x="94.8475" y="419.2" type="curve" smooth="yes"/>
      <point x="94.8475" y="77.4" type="line" smooth="yes"/>
      <point x="94.8475" y="48.4"/>
      <point x="68.3675" y="41.4"/>
      <point x="31.195" y="41.4" type="curve" smooth="yes"/>
      <point x="29.7425" y="41.4" type="line"/>
    </contour>
    <contour>
      <point x="452.1225" y="357.0" type="line" smooth="yes"/>
      <point x="452.1225" y="468.0"/>
      <point x="398.695" y="518.0"/>
      <point x="319.245" y="518.0" type="curve" smooth="yes"/>
      <point x="238.505" y="518.0"/>
      <point x="189.745" y="462.4"/>
      <point x="135.14249999999998" y="348.4" type="curve"/>
      <point x="158.55" y="322.2" type="line"/>
      <point x="196.53250000000003" y="412.0"/>
      <point x="243.135" y="461.0"/>
      <point x="300.2625" y="461.0" type="curve" smooth="yes"/>
      <point x="349.865" y="461.0"/>
      <point x="366.41499999999996" y="425.2"/>
      <point x="366.41499999999996" y="346.0" type="curve"/>
      <point x="366.41499999999996" y="-51.0" type="line" smooth="yes"/>
      <point x="366.41499999999996" y="-149.6"/>
      <point x="334.8875" y="-180.0"/>
      <point x="285.765" y="-180.0" type="curve" smooth="yes"/>
      <point x="261.67" y="-180.0"/>
      <point x="242.17000000000002" y="-174.2"/>
      <point x="223.4075" y="-167.6" type="curve"/>
      <point x="223.4075" y="-224.8" type="line"/>
      <point x="237.67000000000002" y="-231.4"/>
      <point x="265.5" y="-236.0"/>
      <point x="291.875" y="-236.0" type="curve" smooth="yes"/>
      <point x="376.12" y="-236.0"/>
      <point x="452.1225" y="-196.0"/>
      <point x="452.1225" y="-51.0" type="curve" smooth="yes"/>
    </contour>
  </outline>
</glyph>
<glyph name="ohorn" format="2">
  <advance width="521.2025"/>
  <unicode hex="01A1"/>
  <anchor x="253.5" y="538.0" name="top"/>
  <outline>
    <contour>
      <point x="290.7575" y="485.2" type="curve"/>
      <point x="442.5775" y="475.2"/>
      <point x="497.645" y="534.0"/>
      <point x="497.645" y="681.0" type="curve"/>
      <point x="425.375" y="681.0" type="line"/>
      <point x="425.2325" y="552.6"/>
      <point x="396.6175" y="518.0"/>
      <point x="255.82750000000001" y="518.0" type="curve"/>
      <point x="263.4" y="509.8"/>
      <point x="282.305" y="492.4"/>
    </contour>
    <contour>
      <point x="255.59" y="-10.4" type="curve"/>
      <point x="384.01" y="-10.4"/>
      <point x="474.53249999999997" y="96.6"/>
      <point x="474.53249999999997" y="253.8" type="curve" smooth="yes"/>
      <point x="474.53249999999997" y="372.2"/>
      <point x="418.295" y="465.6"/>
      <point x="315.675" y="499.6" type="curve"/>
      <point x="308.79999999999995" y="510.8"/>
      <point x="282.635" y="518.0"/>
      <point x="255.59" y="518.0" type="curve" smooth="yes"/>
      <point x="126.7175" y="518.0"/>
      <point x="36.195" y="410.0"/>
      <point x="36.195" y="253.8" type="curve" smooth="yes"/>
      <point x="36.195" y="96.6"/>
      <point x="126.7175" y="-10.4"/>
    </contour>
    <contour>
      <point x="255.59" y="41.2" type="curve"/>
      <point x="175.3875" y="41.2"/>
      <point x="125.9025" y="125.2"/>
      <point x="125.9025" y="253.8" type="curve" smooth="yes"/>
      <point x="125.9025" y="380.2"/>
      <point x="175.3875" y="466.4"/>
      <point x="255.59" y="466.4" type="curve" smooth="yes"/>
      <point x="335.34000000000003" y="466.4"/>
      <point x="384.825" y="380.2"/>
      <point x="384.825" y="253.8" type="curve" smooth="yes"/>
      <point x="384.825" y="124.2"/>
      <point x="335.34000000000003" y="41.2"/>
    </contour>
  </outline>
</glyph>
<glyph name="uhorn" format="2">
  <advance width="522.9075"/>
  <unicode hex="01B0"/>
  <anchor x="237.5" y="545.0" name="top"/>
  <outline>
    <contour>
      <point x="168.505" y="508.0" type="line"/>
      <point x="15.8825" y="508.0" type="line"/>
      <point x="15.8825" y="464.2" type="line"/>
      <point x="25.455000000000002" y="462.6" type="line" smooth="yes"/>
      <point x="65.0325" y="456.2"/>
      <point x="82.7975" y="448.4"/>
      <point x="82.7975" y="419.4" type="curve" smooth="yes"/>
      <point x="82.7975" y="151.0" type="line" smooth="yes"/>
      <point x="82.7975" y="40.0"/>
      <point x="136.63" y="-10.0"/>
      <point x="215.07999999999998" y="-10.0" type="curve" smooth="yes"/>
      <point x="295.415" y="-10.0"/>
      <point x="343.935" y="45.6"/>
      <point x="398.68" y="159.6" type="curve"/>
      <point x="374.2275" y="186.6" type="line"/>
      <point x="336.245" y="96.0"/>
      <point x="290.6425" y="47.0"/>
      <point x="234.515" y="47.0" type="curve" smooth="yes"/>
      <point x="184.60250000000002" y="47.0"/>
      <point x="168.505" y="82.8"/>
      <point x="168.505" y="162.8" type="curve"/>
    </contour>
    <contour>
      <point x="436.5725" y="496.0" type="line"/>
      <point x="412.53499999999997" y="490.8"/>
      <point x="394.295" y="484.6"/>
      <point x="373.635" y="472.4" type="curve"/>
      <point x="485.5" y="476.0"/>
      <point x="538.8575" y="529.4"/>
      <point x="538.8575000000001" y="681.0" type="curve"/>
      <point x="466.5875" y="681.0" type="line"/>
      <point x="466.3975" y="544.2"/>
      <point x="446.1625" y="508.0"/>
      <point x="344.995" y="508.0" type="curve" smooth="yes"/>
      <point x="273.6175" y="508.0" type="line"/>
      <point x="273.6175" y="464.2" type="line"/>
      <point x="290.71500000000003" y="462.6" type="line"/>
      <point x="331.1975" y="458.6"/>
      <point x="350.865" y="448.4"/>
      <point x="350.865" y="419.4" type="curve" smooth="yes"/>
      <point x="350.865" y="115.0" type="line"/>
      <point x="358.745" y="106.4" type="line"/>
      <point x="358.745" y="0.0" type="line"/>
      <point x="503.4875" y="0.0" type="line"/>
      <point x="503.4875" y="41.4" type="line"/>
      <point x="500.7025" y="41.4" type="line" smooth="yes"/>
      <point x="462.935" y="41.4"/>
      <point x="436.5725" y="48.4"/>
      <point x="436.5725" y="77.4" type="curve" smooth="yes"/>
    </contour>
  </outline>
</glyph>
<glyph name="quoteright" format="2">
  <advance width="209"/>
  <unicode hex="2019"/>
  <outline>
    <contour>
      <point x="90" y="445" type="line"/>
      <point x="133" y="494"/>
      <point x="169" y="568"/>
      <point x="169" y="644" type="curve" smooth="yes"/>
      <point x="169" y="693"/>
      <point x="144" y="715"/>
      <point x="108" y="715" type="curve" smooth="yes"/>
      <point x="76" y="715"/>
      <point x="52" y="692"/>
      <point x="52" y="660" type="curve" smooth="yes"/>
      <point x="52" y="627"/>
      <point x="76" y="606"/>
      <point x="113" y="606" type="curve" smooth="yes"/>
      <point x="119" y="606"/>
      <point x="126" y="608"/>
      <point x="134" y="612" type="curve"/>
      <point x="124" y="620"/>
      <point x="128" y="628"/>
      <point x="124" y="623" type="curve"/>
      <point x="122" y="576"/>
      <point x="74" y="515"/>
      <point x="30" y="476" type="curve"/>
    </contour>
  </outline>
</glyph>
<glyph name="daggerdbl" format="2">
  <advance width="372.405"/>
  <unicode hex="2021"/>
  <outline>
    <contour>
      <point x="172.185" y="507.4" type="line"/>
      <point x="200.22" y="507.4" type="line"/>
      <point x="322.525" y="458.4" type="line"/>
      <point x="347.8325" y="458.4" type="line"/>
      <point x="347.8325" y="561.2" type="line"/>
      <point x="322.525" y="561.2" type="line"/>
      <point x="200.22" y="534.4" type="line"/>
      <point x="172.185" y="534.4" type="line"/>
      <point x="49.88" y="561.2" type="line"/>
      <point x="24.5725" y="561.2" type="line"/>
      <point x="24.5725" y="458.4" type="line"/>
      <point x="49.88" y="458.4" type="line"/>
    </contour>
    <contour>
      <point x="172.185" y="202.6" type="line"/>
      <point x="49.88" y="251.6" type="line"/>
      <point x="24.5725" y="251.6" type="line"/>
      <point x="24.5725" y="148.8" type="line"/>
      <point x="49.88" y="148.8" type="line"/>
      <point x="172.185" y="175.6" type="line"/>
      <point x="200.22" y="175.6" type="line"/>
      <point x="322.525" y="148.8" type="line"/>
      <point x="347.8325" y="148.8" type="line"/>
      <point x="347.8325" y="251.6" type="line"/>
      <point x="322.525" y="251.6" type="line"/>
      <point x="200.22" y="202.6" type="line"/>
    </contour>
    <contour>
      <point x="133.58249999999998" y="335.4" type="line"/>
      <point x="152.69" y="295.6"/>
      <point x="164.35" y="257.8"/>
      <point x="164.35" y="191.4" type="curve"/>
      <point x="164.35" y="127.4"/>
      <point x="136.315" y="69.6"/>
      <point x="136.315" y="35.0" type="curve" smooth="yes"/>
      <point x="136.315" y="0.0" type="line"/>
      <point x="236.08999999999997" y="0.0" type="line"/>
      <point x="236.08999999999997" y="35.0" type="line" smooth="yes"/>
      <point x="236.08999999999997" y="69.6"/>
      <point x="208.055" y="127.4"/>
      <point x="208.055" y="191.4" type="curve"/>
      <point x="208.055" y="257.8"/>
      <point x="219.71499999999997" y="295.6"/>
      <point x="238.8225" y="335.4" type="curve"/>
      <point x="238.8225" y="374.6" type="line"/>
      <point x="219.71499999999997" y="414.4"/>
      <point x="208.055" y="452.2"/>
      <point x="208.055" y="518.6" type="curve"/>
      <point x="208.055" y="582.6"/>
      <point x="236.08999999999997" y="640.4"/>
      <point x="236.08999999999997" y="675.0" type="curve" smooth="yes"/>
      <point x="236.08999999999997" y="710.0" type="line"/>
      <point x="136.315" y="710.0" type="line"/>
      <point x="136.315" y="675.0" type="line" smooth="yes"/>
      <point x="136.315" y="640.4"/>
      <point x="164.35" y="582.6"/>
      <point x="164.35" y="518.6" type="curve"/>
      <point x="164.35" y="452.2"/>
      <point x="152.69" y="414.4"/>
      <point x="133.58249999999998" y="374.6" type="curve"/>
    </contour>
  </outline>
</glyph>
<glyph name="uni20B4" format="2">
  <advance width="462.0"/>
  <unicode hex="20B4"/>
  <outline>
    <contour>
      <point x="12.88" y="464.8" type="line"/>
      <point x="12.88" y="414.0" type="line"/>
      <point x="449.12" y="414.0" type="line"/>
      <point x="449.12" y="464.8" type="line"/>
    </contour>
    <contour>
      <point x="12.88" y="316.0" type="line"/>
      <point x="12.88" y="265.2" type="line"/>
      <point x="449.12" y="265.2" type="line"/>
      <point x="449.12" y="316.0" type="line"/>
    </contour>
    <contour>
      <point x="247.385" y="720.0" type="curve" smooth="yes"/>
      <point x="166.865" y="720.0"/>
      <point x="105.295" y="681.2"/>
      <point x="78.555" y="655.4" type="curve"/>
      <point x="78.555" y="547.2" type="line"/>
      <point x="157.665" y="547.2" type="line"/>
      <point x="157.665" y="648.2" type="line"/>
      <point x="135.5" y="646.6"/>
      <point x="114.23500000000001" y="620.4"/>
      <point x="119.9" y="597.0" type="curve"/>
      <point x="143.5675" y="636.4"/>
      <point x="185.4075" y="666.8"/>
      <point x="239.7475" y="666.8" type="curve" smooth="yes"/>
      <point x="308.0675" y="666.8"/>
      <point x="330.7825" y="625.0"/>
      <point x="330.7825" y="568.6" type="curve" smooth="yes"/>
      <point x="330.7825" y="518.4"/>
      <point x="306.7875" y="473.6"/>
      <point x="260.505" y="439.4" type="curve"/>
      <point x="360.8825" y="427.4" type="line"/>
      <point x="388.235" y="458.0"/>
      <point x="409.45" y="507.0"/>
      <point x="409.45" y="564.6" type="curve" smooth="yes"/>
      <point x="409.45" y="660.0"/>
      <point x="352.6875" y="720.0"/>
    </contour>
    <contour>
      <point x="239.35500000000002" y="-10.0" type="curve" smooth="yes"/>
      <point x="328.5925" y="-10.0"/>
      <point x="396.4475" y="38.2"/>
      <point x="424.425" y="66.4" type="curve"/>
      <point x="424.425" y="186.8" type="line"/>
      <point x="342.245" y="186.8" type="line"/>
      <point x="342.245" y="63.0" type="line"/>
      <point x="363.5525" y="65.0"/>
      <point x="386.27" y="110.0"/>
      <point x="381.79499999999996" y="120.6" type="curve"/>
      <point x="346.435" y="75.0"/>
      <point x="304.8575" y="44.0"/>
      <point x="246.0425" y="44.0" type="curve" smooth="yes"/>
      <point x="184.7025" y="44.0"/>
      <point x="144.125" y="79.6"/>
      <point x="144.125" y="160.6" type="curve" smooth="yes"/>
      <point x="144.125" y="211.4"/>
      <point x="166.21499999999997" y="263.0"/>
      <point x="212.39499999999998" y="295.0" type="curve"/>
      <point x="99.2825" y="291.0" type="line"/>
      <point x="75.525" y="266.4"/>
      <point x="61.599999999999994" y="221.2"/>
      <point x="61.599999999999994" y="171.4" type="curve" smooth="yes"/>
      <point x="61.599999999999994" y="53.4"/>
      <point x="132.0775" y="-10.0"/>
    </contour>
  </outline>
</glyph>
<glyph name="manat" format="2">
  <advance width="462.0"/>
  <unicode hex="20BC"/>
  <outline>
    <contour>
      <point x="205.81" y="720.0" type="line"/>
      <point x="205.81" y="136.0" type="line"/>
      <point x="256.19" y="136.0" type="line"/>
      <point x="256.19" y="720.0" type="line"/>
    </contour>
    <contour>
      <point x="231.0" y="542.4" type="curve" smooth="yes"/>
      <point x="332.7475" y="542.4"/>
      <point x="361.4425" y="373.0"/>
      <point x="359.97" y="0.0" type="curve"/>
      <point x="444.045" y="0.0" type="line"/>
      <point x="444.045" y="366.8"/>
      <point x="379.12" y="590.0"/>
      <point x="231.0" y="590.0" type="curve" smooth="yes"/>
      <point x="82.88" y="590.0"/>
      <point x="17.955" y="366.8"/>
      <point x="17.955" y="0.0" type="curve"/>
      <point x="102.03" y="0.0" type="line"/>
      <point x="100.46249999999999" y="373.0"/>
      <point x="129.1575" y="542.4"/>
    </contour>
  </outline>
</glyph>
<glyph name="summation" format="2">
  <advance width="486.2075"/>
  <unicode hex="2211"/>
  <outline>
    <contour>
      <point x="74.97250000000001" y="646.4" type="line"/>
      <point x="83.8325" y="690.2" type="line"/>
      <point x="298.4425" y="288.0" type="line"/>
      <point x="298.4425" y="248.0" type="line"/>
      <point x="65.24" y="-197.6" type="line"/>
      <point x="72.42500000000001" y="-159.4" type="line"/>
      <point x="293.9" y="-159.4" type="line" smooth="yes"/>
      <point x="364.0925" y="-159.4"/>
      <point x="393.07" y="-152.4"/>
      <point x="395.66499999999996" y="-116.4" type="curve" smooth="yes"/>
      <point x="403.3075" y="-4.399999999999999" type="line"/>
      <point x="453.96750000000003" y="-4.399999999999999" type="line"/>
      <point x="453.96750000000003" y="-223.0" type="line"/>
      <point x="24.192500000000003" y="-223.0" type="line"/>
      <point x="24.192500000000003" y="-155.0" type="line"/>
      <point x="251.4425" y="282.0" type="line"/>
      <point x="241.6725" y="234.0" type="line"/>
      <point x="24.192500000000003" y="642.0" type="line"/>
      <point x="24.192500000000003" y="710.0" type="line"/>
      <point x="435.1575" y="710.0" type="line"/>
      <point x="435.1575" y="508.4" type="line"/>
      <point x="386.4975" y="508.4" type="line"/>
      <point x="379.33" y="603.4" type="line" smooth="yes"/>
      <point x="376.8775" y="639.4"/>
      <point x="346.925" y="646.4"/>
      <point x="278.775" y="646.4" type="curve" smooth="yes"/>
    </contour>
  </outline>
</glyph>
<glyph name="uni27F7" format="2">
  <advance width="1071.5"/>
  <unicode hex="27F7"/>
  <outline>
    <contour>
      <point x="837.5" y="324.0" type="line"/>
      <point x="764.0" y="192.0" type="line"/>
      <point x="772.0" y="179.0" type="line"/>
      <point x="1026.5" y="346.0" type="line"/>
      <point x="1026.5" y="360.0" type="line"/>
      <point x="772.0" y="527.0" type="line"/>
      <point x="764.0" y="514.0" type="line"/>
      <point x="837.5" y="382.0" type="line"/>
      <point x="234.5" y="382.0" type="line"/>
      <point x="307.5" y="514.0" type="line"/>
      <point x="299.5" y="527.0" type="line"/>
      <point x="45.5" y="360.0" type="line"/>
      <point x="45.5" y="346.0" type="line"/>
      <point x="299.5" y="179.0" type="line"/>
      <point x="307.5" y="192.0" type="line"/>
      <point x="234.5" y="324.0" type="line"/>
    </contour>
  </outline>
</glyph>
<glyph name="E.alt" format="2">
  <advance width="528.9275"/>
  <outline>
    <contour>
      <point x="482.77750000000003" y="211.2" type="line"/>
      <point x="431.7875" y="211.2" type="line"/>
      <point x="424.145" y="96.2" type="line" smooth="yes"/>
      <point x="421.455" y="60.2"/>
      <point x="392.12" y="53.2"/>
      <point x="321.9275" y="53.2" type="curve" smooth="yes"/>
      <point x="200.0275" y="53.2" type="line"/>
      <point x="200.0275" y="656.8" type="line"/>
      <point x="300.8025" y="656.8" type="line" smooth="yes"/>
      <point x="369.0" y="656.8"/>
      <point x="397.4525" y="649.8"/>
      <point x="400.905" y="613.8" type="curve" smooth="yes"/>
      <point x="408.0725" y="523.8" type="line"/>
      <point x="458.015" y="523.8" type="line"/>
      <point x="458.015" y="710.0" type="line"/>
      <point x="35.195" y="710.0" type="line"/>
      <point x="35.195" y="666.4" type="line"/>
      <point x="44.1475" y="666.4" type="line" smooth="yes"/>
      <point x="82.7475" y="666.4"/>
      <point x="111.32249999999999" y="659.4"/>
      <point x="111.32249999999999" y="630.4" type="curve" smooth="yes"/>
      <point x="111.32249999999999" y="79.6" type="line" smooth="yes"/>
      <point x="111.32249999999999" y="50.6"/>
      <point x="82.7475" y="43.6"/>
      <point x="44.1475" y="43.6" type="curve" smooth="yes"/>
      <point x="35.195" y="43.6" type="line"/>
      <point x="35.195" y="0.0" type="line"/>
      <point x="482.77750000000003" y="0.0" type="line"/>
    </contour>
    <contour>
      <point x="171.39499999999998" y="337.8" type="line"/>
      <point x="307.425" y="337.8" type="line" smooth="yes"/>
      <point x="331.425" y="337.8"/>
      <point x="339.3775" y="307.2"/>
      <point x="339.3775" y="273.2" type="curve" smooth="yes"/>
      <point x="339.3775" y="266.8" type="line"/>
      <point x="379.8225" y="266.8" type="line"/>
      <point x="379.8225" y="460.6" type="line"/>
      <point x="339.3775" y="460.6" type="line"/>
      <point x="339.3775" y="454.2" type="line" smooth="yes"/>
      <point x="339.3775" y="419.2"/>
      <point x="331.425" y="388.6"/>
      <point x="307.425" y="388.6" type="curve" smooth="yes"/>
      <point x="171.39499999999998" y="388.6" type="line"/>
    </contour>
  </outline>
</glyph>
<glyph name="Euro.proportional" format="2">
  <advance width="570.0174999999999"/>
  <outline>
    <contour>
      <point x="19.805" y="449.8" type="line"/>
      <point x="19.805" y="399.0" type="line"/>
      <point x="362.13" y="399.0" type="line"/>
      <point x="362.13" y="449.8" type="line"/>
    </contour>
    <contour>
      <point x="19.805" y="291.6" type="line"/>
      <point x="19.805" y="240.8" type="line"/>
      <point x="322.5075" y="240.8" type="line"/>
      <point x="322.5075" y="291.6" type="line"/>
    </contour>
    <contour>
      <point x="177.4475" y="353.8" type="curve"/>
      <point x="177.4475" y="552.8"/>
      <point x="245.625" y="664.2"/>
      <point x="354.53999999999996" y="664.2" type="curve" smooth="yes"/>
      <point x="410.52" y="664.2"/>
      <point x="450.3575" y="639.8"/>
      <point x="476.5725" y="593.0" type="curve"/>
      <point x="481.5725" y="616.8"/>
      <point x="456.355" y="659.0"/>
      <point x="438.4075" y="660.2" type="curve"/>
      <point x="438.4075" y="522.6" type="line"/>
      <point x="524.37" y="522.6" type="line"/>
      <point x="524.37" y="657.2" type="line"/>
      <point x="502.2025" y="681.6"/>
      <point x="442.8725" y="719.8"/>
      <point x="353.59000000000003" y="719.8" type="curve" smooth="yes"/>
      <point x="194.38" y="719.8"/>
      <point x="83.405" y="580.4"/>
      <point x="83.405" y="353.8" type="curve"/>
      <point x="83.405" y="130.8"/>
      <point x="186.58181743402" y="-10.0"/>
      <point x="334.15999999999997" y="-10.0" type="curve" smooth="yes"/>
      <point x="445.4974418604125" y="-10.0"/>
      <point x="520.78448651674" y="79.22861512552001"/>
      <point x="545.135" y="207.2" type="curve"/>
      <point x="492.83000000000004" y="229.0" type="line"/>
      <point x="472.6710139323" y="126.6334160088"/>
      <point x="420.621374345545" y="45.6"/>
      <point x="341.77250000000004" y="45.6" type="curve" smooth="yes"/>
      <point x="238.49182142837753" y="45.6"/>
      <point x="177.4475" y="160.6"/>
    </contour>
  </outline>
</glyph>
<glyph name="blackdiamond" format="2">
  <advance width="513.0"/>
  <outline>
    <contour>
      <point x="472.0" y="313.0" type="line"/>
      <point x="256.5" y="574.0" type="line"/>
      <point x="41.0" y="313.0" type="line"/>
      <point x="256.5" y="52.0" type="line"/>
    </contour>
  </outline>
</glyph>
<glyph name="caroncomb.alt" format="2">
  <advance width="373.3125"/>
  <anchor x="31.36500000000001" y="563.6" name="_right"/>
  <outline>
    <contour>
      <point x="89.52249999999998" y="526.0" type="line"/>
      <point x="41.36499999999998" y="526.0" type="line"/>
      <point x="41.36499999999998" y="536.0" type="line"/>
      <point x="56.17499999999998" y="710.0" type="line"/>
      <point x="137.16" y="710.0" type="line"/>
    </contour>
  </outline>
</glyph>
<glyph name="circumflex_tilde.uc" format="2">
  <advance width="412.0475"/>
  <anchor x="200.5" y="694.0" name="_top"/>
  <outline>
    <contour>
      <point x="248.18" y="862.2" type="line"/>
      <point x="336.7275" y="762.2" type="line"/>
      <point x="336.7275" y="749.8" type="line"/>
      <point x="288.7875" y="749.8" type="line"/>
      <point x="192.32" y="817.6" type="line"/>
      <point x="210.6275" y="817.6" type="line"/>
      <point x="114.065" y="749.8" type="line"/>
      <point x="77.34" y="749.8" type="line"/>
      <point x="77.34" y="762.2" type="line"/>
      <point x="165.9825" y="862.2" type="line"/>
    </contour>
    <contour>
      <point x="253.82999999999998" y="896.0" type="curve" smooth="yes"/>
      <point x="292.9675" y="896.0"/>
      <point x="318.3733966474225" y="926.6615992936"/>
      <point x="333.25" y="981.6" type="curve"/>
      <point x="290.83" y="998.6" type="line"/>
      <point x="283.933679883475" y="969.9860701748"/>
      <point x="275.235" y="948.2"/>
      <point x="257.6875" y="948.2" type="curve" smooth="yes"/>
      <point x="228.14" y="948.2"/>
      <point x="206.0675" y="995.2"/>
      <point x="163.2625" y="995.2" type="curve" smooth="yes"/>
      <point x="124.1975" y="995.2"/>
      <point x="99.27090823545001" y="963.91749193"/>
      <point x="89.00999999999999" y="908.4" type="curve"/>
      <point x="130.525" y="892.0" type="line"/>
      <point x="136.8391541246975" y="925.1261080516"/>
      <point x="144.62" y="943.8"/>
      <point x="160.7625" y="943.8" type="curve" smooth="yes"/>
      <point x="182.5475" y="943.8"/>
      <point x="205.16750000000002" y="896.0"/>
    </contour>
  </outline>
</glyph>
<glyph name="commaaccent" format="2">
  <advance width="412.5"/>
  <anchor x="199.5" y="33.0" name="_bottom"/>
  <outline>
    <contour>
      <point x="192.2425" y="-297.2" type="line"/>
      <point x="233.7259006459936" y="-253.2"/>
      <point x="256.6875" y="-210.4"/>
      <point x="256.6875" y="-154.2" type="curve" smooth="yes"/>
      <point x="256.6875" y="-110.2"/>
      <point x="233.25638613861386" y="-88.8"/>
      <point x="200.8625" y="-88.8" type="curve" smooth="yes"/>
      <point x="171.9340625" y="-88.8"/>
      <point x="151.3475" y="-108.4"/>
      <point x="151.3475" y="-137.8" type="curve" smooth="yes"/>
      <point x="151.3475" y="-166.6"/>
      <point x="172.7025" y="-187.0"/>
      <point x="205.89000000000001" y="-187.0" type="curve" smooth="yes"/>
      <point x="212.65" y="-187.0"/>
      <point x="220.03" y="-185.8"/>
      <point x="228.48250000000002" y="-179.6" type="curve"/>
      <point x="218.45781664476044" y="-174.6"/>
      <point x="219.15015068241416" y="-168.2"/>
      <point x="214.72" y="-171.6" type="curve"/>
      <point x="213.4824739230033" y="-204.8"/>
      <point x="178.81824711001522" y="-243.0"/>
      <point x="140.4425" y="-271.0" type="curve"/>
    </contour>
  </outline>
</glyph>
<glyph name="dollar.alt" format="2">
  <advance width="462.0"/>
  <outline>
    <contour>
      <point x="234.195" y="65.2" type="curve" smooth="yes"/>
      <point x="168.9275" y="65.2"/>
      <point x="113.0540916192525" y="94.6"/>
      <point x="81.11" y="149.2" type="curve"/>
      <point x="76.53999999999999" y="135.0"/>
      <point x="93.89750000000001" y="97.4"/>
      <point x="118.8725" y="90.6" type="curve"/>
      <point x="118.8725" y="210.2" type="line"/>
      <point x="34.6725" y="210.2" type="line"/>
      <point x="34.6725" y="92.4" type="line"/>
      <point x="72.77" y="49.4"/>
      <point x="144.884580078125" y="11.2"/>
      <point x="237.48" y="11.2" type="curve" smooth="yes"/>
      <point x="347.73249999999996" y="11.2"/>
      <point x="429.59" y="81.6"/>
      <point x="429.59" y="205.4" type="curve" smooth="yes"/>
      <point x="429.59" y="331.0"/>
      <point x="342.4175" y="375.0"/>
      <point x="259.59" y="400.6" type="curve" smooth="yes"/>
      <point x="192.8475" y="423.4"/>
      <point x="129.345" y="445.6"/>
      <point x="129.345" y="531.4" type="curve" smooth="yes"/>
      <point x="129.345" y="602.2"/>
      <point x="168.8975" y="644.0"/>
      <point x="239.24" y="644.0" type="curve" smooth="yes"/>
      <point x="298.5325" y="644.0"/>
      <point x="342.46043404955503" y="608.6"/>
      <point x="367.9425" y="574.4" type="curve"/>
      <point x="371.06" y="595.0"/>
      <point x="352.63" y="624.0"/>
      <point x="330.87" y="626.2" type="curve"/>
      <point x="330.87" y="528.2" type="line"/>
      <point x="410.6175" y="528.2" type="line"/>
      <point x="410.6175" y="632.8" type="line"/>
      <point x="386.16499999999996" y="662.4"/>
      <point x="322.4275" y="698.0"/>
      <point x="242.8825" y="698.0" type="curve" smooth="yes"/>
      <point x="127.60249999999999" y="698.0"/>
      <point x="52.7725" y="632.0"/>
      <point x="52.7725" y="524.4" type="curve" smooth="yes"/>
      <point x="52.7725" y="397.6"/>
      <point x="134.0625" y="361.2"/>
      <point x="212.4675" y="334.8" type="curve" smooth="yes"/>
      <point x="283.1825" y="309.4"/>
      <point x="348.5175" y="292.2"/>
      <point x="348.5175" y="192.0" type="curve" smooth="yes"/>
      <point x="348.5175" y="104.8"/>
      <point x="305.9175" y="65.2"/>
    </contour>
    <contour>
      <point x="260.425" y="674.4" type="line"/>
      <point x="260.425" y="789.4" type="line"/>
      <point x="207.79" y="789.4" type="line"/>
      <point x="207.79" y="674.4" type="line"/>
    </contour>
    <contour>
      <point x="207.79" y="32.4" type="line"/>
      <point x="207.79" y="-120.0" type="line"/>
      <point x="260.425" y="-120.0" type="line"/>
      <point x="260.425" y="32.4" type="line"/>
    </contour>
  </outline>
</glyph>
<glyph name="f_f.short" format="2">
  <advance width="608.68"/>
  <outline>
    <contour>
      <point x="28.5075" y="508.0" type="line"/>
      <point x="28.5075" y="457.0" type="line"/>
      <point x="325.21" y="457.0" type="line"/>
      <point x="325.21" y="508.0" type="line"/>
    </contour>
    <contour>
      <point x="307.8375" y="508.0" type="line"/>
      <point x="307.8375" y="457.0" type="line"/>
      <point x="589.415" y="457.0" type="line"/>
      <point x="589.415" y="508.0" type="line"/>
    </contour>
    <contour>
      <point x="390.7725" y="51.4" type="line"/>
      <point x="390.7725" y="44.4"/>
      <point x="365.9125" y="41.4"/>
      <point x="323.07" y="41.4" type="curve" smooth="yes"/>
      <point x="314.5925" y="41.4" type="line"/>
      <point x="314.5925" y="0.0" type="line"/>
      <point x="562.2975" y="0.0" type="line"/>
      <point x="562.2975" y="41.4" type="line"/>
      <point x="552.035" y="41.4" type="line" smooth="yes"/>
      <point x="509.72" y="41.4"/>
      <point x="476.4325" y="44.4"/>
      <point x="476.4325" y="51.4" type="curve" smooth="yes"/>
      <point x="476.4325" y="578.0" type="line" smooth="yes"/>
      <point x="476.4325" y="678.0"/>
      <point x="504.0075" y="701.2"/>
      <point x="544.1525" y="701.2" type="curve" smooth="yes"/>
      <point x="565.7475" y="701.2"/>
      <point x="587.1525" y="694.0"/>
      <point x="601.1075" y="686.6" type="curve"/>
      <point x="601.1075" y="742.0" type="line"/>
      <point x="588.7025" y="747.6"/>
      <point x="563.99" y="752.0"/>
      <point x="541.685" y="752.0" type="curve" smooth="yes"/>
      <point x="464.8625" y="752.0"/>
      <point x="390.7725" y="710.4"/>
      <point x="390.7725" y="578.0" type="curve"/>
    </contour>
    <contour>
      <point x="197.1025" y="51.4" type="curve"/>
      <point x="197.1025" y="561.0" type="line" smooth="yes"/>
      <point x="197.1025" y="662.4"/>
      <point x="228.2975" y="687.6"/>
      <point x="270.85" y="687.6" type="curve" smooth="yes"/>
      <point x="293.71" y="687.6"/>
      <point x="314.5925" y="678.6"/>
      <point x="329.6675" y="670.6" type="curve"/>
      <point x="329.6675" y="727.8" type="line"/>
      <point x="316.0" y="733.8"/>
      <point x="290.5725" y="737.8"/>
      <point x="267.28999999999996" y="737.8" type="curve" smooth="yes"/>
      <point x="188.63" y="737.8"/>
      <point x="111.4425" y="694.8"/>
      <point x="111.4425" y="561.0" type="curve" smooth="yes"/>
      <point x="111.4425" y="77.4" type="line" smooth="yes"/>
      <point x="111.4425" y="48.4"/>
      <point x="85.82" y="41.4"/>
      <point x="42.457499999999996" y="41.4" type="curve" smooth="yes"/>
      <point x="33.362500000000004" y="41.4" type="line"/>
      <point x="33.362500000000004" y="0.0" type="line"/>
      <point x="261.9925" y="0.0" type="line"/>
      <point x="261.9925" y="41.4" type="line"/>
      <point x="259.4925" y="41.4" type="line" smooth="yes"/>
      <point x="223.39249999999998" y="41.4"/>
      <point x="197.1025" y="44.4"/>
    </contour>
  </outline>
</glyph>
<glyph name="f_f_h.alt" format="2">
  <advance width="1110.2475"/>
  <outline>
    <contour>
      <point x="197.1025" y="51.4" type="curve" smooth="yes"/>
      <point x="197.1025" y="551.8" type="line" smooth="yes"/>
      <point x="197.1025" y="644.6"/>
      <point x="225.7975" y="681.2"/>
      <point x="305.83" y="681.2" type="curve" smooth="yes"/>
      <point x="369.695" y="681.2"/>
      <point x="404.5575" y="657.6"/>
      <point x="426.705" y="608.2" type="curve"/>
      <point x="439.06" y="649.4"/>
      <point x="417.6275" y="688.8"/>
      <point x="390.7725" y="674.4" type="curve"/>
      <point x="390.7725" y="549.0" type="line"/>
      <point x="463.17" y="599.0" type="line"/>
      <point x="464.7375" y="669.0" type="line"/>
      <point x="446.405" y="697.4"/>
      <point x="395.0025" y="732.0"/>
      <point x="304.025" y="732.0" type="curve" smooth="yes"/>
      <point x="182.0525" y="732.0"/>
      <point x="111.4425" y="671.0"/>
      <point x="111.4425" y="551.8" type="curve" smooth="yes"/>
      <point x="111.4425" y="77.4" type="line"/>
      <point x="111.4425" y="48.4"/>
      <point x="85.82" y="41.4"/>
      <point x="42.457499999999996" y="41.4" type="curve" smooth="yes"/>
      <point x="33.362500000000004" y="41.4" type="line"/>
      <point x="33.362500000000004" y="0.0" type="line"/>
      <point x="261.9925" y="0.0" type="line"/>
      <point x="261.9925" y="41.4" type="line"/>
      <point x="259.4925" y="41.4" type="line" smooth="yes"/>
      <point x="223.39249999999998" y="41.4"/>
      <point x="197.1025" y="44.4"/>
    </contour>
    <contour>
      <point x="390.7725" y="51.4" type="line"/>
      <point x="390.7725" y="44.4"/>
      <point x="364.5775" y="41.4"/>
      <point x="324.19" y="41.4" type="curve" smooth="yes"/>
      <point x="314.5925" y="41.4" type="line"/>
      <point x="314.5925" y="0.0" type="line"/>
      <point x="552.3975" y="0.0" type="line"/>
      <point x="552.3975" y="41.4" type="line"/>
      <point x="542.205" y="41.4" type="line" smooth="yes"/>
      <point x="505.2225" y="41.4"/>
      <point x="476.4325" y="44.4"/>
      <point x="476.4325" y="51.4" type="curve"/>
      <point x="476.4325" y="576.0" type="line" smooth="yes"/>
      <point x="476.4325" y="677.4"/>
      <point x="513.8425" y="701.2"/>
      <point x="569.6575" y="701.2" type="curve" smooth="yes"/>
      <point x="621.5425" y="701.2"/>
      <point x="660.475" y="684.6"/>
      <point x="694.075" y="633.0" type="curve"/>
      <point x="704.555" y="701.4" type="line"/>
      <point x="673.0575" y="730.2"/>
      <point x="626.6075" y="752.0"/>
      <point x="569.02" y="752.0" type="curve" smooth="yes"/>
      <point x="477.505" y="752.0"/>
      <point x="390.7725" y="709.8"/>
      <point x="390.7725" y="576.0" type="curve"/>
    </contour>
    <contour>
      <point x="941.67" y="51.4" type="line" smooth="yes"/>
      <point x="941.67" y="44.4"/>
      <point x="906.855" y="41.4"/>
      <point x="885.0899999999999" y="41.4" type="curve" smooth="yes"/>
      <point x="883.185" y="41.4" type="line"/>
      <point x="883.185" y="0.0" type="line"/>
      <point x="1092.4825" y="0.0" type="line"/>
      <point x="1092.4825" y="41.4" type="line"/>
      <point x="1090.9825" y="41.4" type="line" smooth="yes"/>
      <point x="1054.715" y="41.4"/>
      <point x="1027.3775" y="48.4"/>
      <point x="1027.3775" y="77.4" type="curve" smooth="yes"/>
      <point x="1027.3775" y="357.0" type="line" smooth="yes"/>
      <point x="1027.3775" y="468.0"/>
      <point x="973.95" y="518.0"/>
      <point x="894.0475" y="518.0" type="curve" smooth="yes"/>
      <point x="812.855" y="518.0"/>
      <point x="764.5475" y="462.4"/>
      <point x="709.4925000000001" y="348.4" type="curve"/>
      <point x="733.3525" y="322.2" type="line"/>
      <point x="771.335" y="412.0"/>
      <point x="817.9375" y="461.0"/>
      <point x="875.47" y="461.0" type="curve" smooth="yes"/>
      <point x="925.12" y="461.0"/>
      <point x="941.67" y="425.2"/>
      <point x="941.67" y="346.0" type="curve" smooth="yes"/>
    </contour>
    <contour>
      <point x="604.0925" y="0.0" type="line"/>
      <point x="814.2950000000001" y="0.0" type="line"/>
      <point x="814.2950000000001" y="41.4" type="line"/>
      <point x="811.7950000000001" y="41.4" type="line" smooth="yes"/>
      <point x="790.22" y="41.4"/>
      <point x="755.8575" y="44.4"/>
      <point x="755.8575" y="51.4" type="curve"/>
      <point x="755.8575" y="735.0" type="line"/>
      <point x="611.785" y="735.0" type="line"/>
      <point x="670.1025" y="707.8" type="line"/>
      <point x="670.1025" y="51.4" type="line"/>
      <point x="670.1025" y="44.4"/>
      <point x="634.835" y="41.4"/>
      <point x="612.665" y="41.4" type="curve" smooth="yes"/>
      <point x="604.0925" y="41.4" type="line"/>
    </contour>
    <contour>
      <point x="28.5075" y="508.0" type="line"/>
      <point x="28.5075" y="457.0" type="line"/>
      <point x="325.21" y="457.0" type="line"/>
      <point x="325.21" y="508.0" type="line"/>
    </contour>
    <contour>
      <point x="307.8375" y="508.0" type="line"/>
      <point x="307.8375" y="457.0" type="line"/>
      <point x="586.4225" y="457.0" type="line"/>
      <point x="586.4225" y="508.0" type="line"/>
    </contour>
  </outline>
</glyph>
<glyph name="f_j.alt" format="2">
  <advance width="549.23"/>
  <outline>
    <contour>
      <point x="28.5075" y="508.0" type="line"/>
      <point x="28.5075" y="457.0" type="line"/>
      <point x="389.2725" y="457.0" type="line"/>
      <point x="389.2725" y="508.0" type="line"/>
    </contour>
    <contour>
      <point x="390.7725" y="-51.0" type="line" smooth="yes"/>
      <point x="390.7725" y="-149.6"/>
      <point x="359.2925" y="-180.0"/>
      <point x="310.575" y="-180.0" type="curve" smooth="yes"/>
      <point x="286.48" y="-180.0"/>
      <point x="266.52750000000003" y="-174.2"/>
      <point x="247.765" y="-166.0" type="curve"/>
      <point x="247.765" y="-223.2" type="line"/>
      <point x="262.52750000000003" y="-231.4"/>
      <point x="290.31" y="-236.0"/>
      <point x="316.685" y="-236.0" type="curve" smooth="yes"/>
      <point x="400.93" y="-236.0"/>
      <point x="476.4325" y="-196.0"/>
      <point x="476.4325" y="-51.0" type="curve" smooth="yes"/>
      <point x="476.4325" y="508.0" type="line"/>
      <point x="314.9525" y="508.0" type="line"/>
      <point x="314.9525" y="457.0" type="line"/>
      <point x="333.47749999999996" y="457.0" type="line" smooth="yes"/>
      <point x="374.0075" y="457.0"/>
      <point x="390.7725" y="441.4"/>
      <point x="390.7725" y="412.4" type="curve" smooth="yes"/>
    </contour>
    <contour>
      <point x="197.1025" y="51.4" type="curve" smooth="yes"/>
      <point x="197.1025" y="571.8" type="line" smooth="yes"/>
      <point x="197.1025" y="664.6"/>
      <point x="227.225" y="701.2"/>
      <point x="308.4225" y="701.2" type="curve" smooth="yes"/>
      <point x="364.28499999999997" y="701.2"/>
      <point x="398.5275" y="681.6"/>
      <point x="419.72249999999997" y="653.4" type="curve"/>
      <point x="432.72" y="673.4"/>
      <point x="410.97749999999996" y="710.4"/>
      <point x="384.4325" y="714.0" type="curve"/>
      <point x="384.4325" y="619.0" type="line"/>
      <point x="462.53" y="619.0" type="line"/>
      <point x="462.53" y="711.8" type="line"/>
      <point x="446.94" y="724.6"/>
      <point x="392.85" y="752.0"/>
      <point x="307.425" y="752.0" type="curve" smooth="yes"/>
      <point x="186.67000000000002" y="752.0"/>
      <point x="111.4425" y="691.0"/>
      <point x="111.4425" y="571.8" type="curve" smooth="yes"/>
      <point x="111.4425" y="77.4" type="line"/>
      <point x="111.4425" y="48.4"/>
      <point x="85.82" y="41.4"/>
      <point x="42.457499999999996" y="41.4" type="curve" smooth="yes"/>
      <point x="33.362500000000004" y="41.4" type="line"/>
      <point x="33.362500000000004" y="0.0" type="line"/>
      <point x="273.0675" y="0.0" type="line"/>
      <point x="273.0675" y="41.4" type="line"/>
      <point x="262.6375" y="41.4" type="line" smooth="yes"/>
      <point x="225.84500000000003" y="41.4"/>
      <point x="197.1025" y="44.4"/>
    </contour>
  </outline>
</glyph>
<glyph name="f_j" format="2">
  <advance width="549.23"/>
  <outline>
    <contour>
      <point x="430.0425" y="626.6" type="curve" smooth="yes"/>
      <point x="462.41499999999996" y="626.6"/>
      <point x="485.48249999999996" y="647.8"/>
      <point x="485.48249999999996" y="683.4" type="curve" smooth="yes"/>
      <point x="485.48249999999996" y="718.2"/>
      <point x="462.41499999999996" y="739.4"/>
      <point x="430.0425" y="739.4" type="curve" smooth="yes"/>
      <point x="398.075" y="739.4"/>
      <point x="375.1025" y="718.2"/>
      <point x="375.1025" y="683.4" type="curve" smooth="yes"/>
      <point x="375.1025" y="647.8"/>
      <point x="398.075" y="626.6"/>
    </contour>
    <contour>
      <point x="28.5075" y="508.0" type="line"/>
      <point x="28.5075" y="457.0" type="line"/>
      <point x="369.815" y="457.0" type="line"/>
      <point x="369.815" y="508.0" type="line"/>
    </contour>
    <contour>
      <point x="390.7725" y="-51.0" type="line" smooth="yes"/>
      <point x="390.7725" y="-149.6"/>
      <point x="359.2925" y="-180.0"/>
      <point x="310.575" y="-180.0" type="curve" smooth="yes"/>
      <point x="286.48" y="-180.0"/>
      <point x="266.52750000000003" y="-174.2"/>
      <point x="247.765" y="-167.6" type="curve"/>
      <point x="247.765" y="-224.8" type="line"/>
      <point x="262.52750000000003" y="-231.4"/>
      <point x="290.31" y="-236.0"/>
      <point x="316.685" y="-236.0" type="curve" smooth="yes"/>
      <point x="400.93" y="-236.0"/>
      <point x="476.4325" y="-196.0"/>
      <point x="476.4325" y="-51.0" type="curve" smooth="yes"/>
      <point x="476.4325" y="508.0" type="line"/>
      <point x="324.0025" y="508.0" type="line"/>
      <point x="324.0025" y="457.0" type="line"/>
      <point x="333.47749999999996" y="457.0" type="line" smooth="yes"/>
      <point x="374.0075" y="457.0"/>
      <point x="390.7725" y="441.4"/>
      <point x="390.7725" y="412.4" type="curve" smooth="yes"/>
    </contour>
    <contour>
      <point x="273.0675" y="0.0" type="line"/>
      <point x="273.0675" y="41.4" type="line"/>
      <point x="262.6375" y="41.4" type="line" smooth="yes"/>
      <point x="225.84500000000003" y="41.4"/>
      <point x="197.1025" y="44.4"/>
      <point x="197.1025" y="51.4" type="curve" smooth="yes"/>
      <point x="197.1025" y="575.2" type="line" smooth="yes"/>
      <point x="197.1025" y="676.6"/>
      <point x="224.4875" y="701.8"/>
      <point x="263.8725" y="701.8" type="curve" smooth="yes"/>
      <point x="284.375" y="701.8"/>
      <point x="305.21000000000004" y="694.4"/>
      <point x="318.975" y="686.4" type="curve"/>
      <point x="318.975" y="742.0" type="line"/>
      <point x="306.6175" y="748.0"/>
      <point x="282.2375" y="752.0"/>
      <point x="260.3125" y="752.0" type="curve" smooth="yes"/>
      <point x="184.82" y="752.0"/>
      <point x="111.4425" y="709.0"/>
      <point x="111.4425" y="575.2" type="curve" smooth="yes"/>
      <point x="111.4425" y="77.4" type="line" smooth="yes"/>
      <point x="111.4425" y="48.4"/>
      <point x="85.82" y="41.4"/>
      <point x="42.457499999999996" y="41.4" type="curve" smooth="yes"/>
      <point x="33.362500000000004" y="41.4" type="line"/>
      <point x="33.362500000000004" y="0.0" type="line"/>
    </contour>
  </outline>
</glyph>
<glyph name="five.lin" format="2">
  <advance width="462.0"/>
  <outline>
    <contour>
      <point x="216.475" y="-10.8" type="curve" smooth="yes"/>
      <point x="110.55" y="-10.8"/>
      <point x="50.575" y="55.0"/>
      <point x="18.717499999999998" y="132.6" type="curve"/>
      <point x="64.185" y="169.4" type="line"/>
      <point x="88.9725" y="110.80000000000001"/>
      <point x="126.4975" y="43.2"/>
      <point x="213.5775" y="43.2" type="curve" smooth="yes"/>
      <point x="288.4175" y="43.2"/>
      <point x="342.1875" y="122.78127853881278"/>
      <point x="342.1875" y="241.8" type="curve" smooth="yes"/>
      <point x="342.1875" y="353.0"/>
      <point x="291.7275" y="413.8"/>
      <point x="227.76999999999998" y="413.8" type="curve" smooth="yes"/>
      <point x="181.815" y="413.8"/>
      <point x="142.0" y="388.6"/>
      <point x="113.5675" y="341.8" type="curve"/>
      <point x="65.4325" y="341.8" type="line"/>
      <point x="65.4325" y="710.0" type="line"/>
      <point x="393.235" y="710.0" type="line"/>
      <point x="373.0425" y="641.0" type="line"/>
      <point x="99.5675" y="641.0" type="line"/>
      <point x="121.0675" y="690.0" type="line"/>
      <point x="121.0675" y="375.8" type="line"/>
      <point x="118.425" y="365.8"/>
      <point x="102.0425" y="357.6"/>
      <point x="101.235" y="377.6" type="curve"/>
      <point x="129.7825" y="433.4"/>
      <point x="185.12" y="467.8"/>
      <point x="245.685" y="467.8" type="curve" smooth="yes"/>
      <point x="358.9225" y="467.8"/>
      <point x="429.805" y="364.2"/>
      <point x="429.805" y="241.8" type="curve" smooth="yes"/>
      <point x="429.805" y="95.5859437751004"/>
      <point x="341.9475" y="-10.8"/>
    </contour>
  </outline>
</glyph>
<glyph name="heartsuitwhite" format="2">
  <advance width="743.5"/>
  <outline>
    <contour>
      <point x="376.0" y="461.0" type="line"/>
      <point x="402.0" y="541.0"/>
      <point x="454.0" y="641.0"/>
      <point x="529.0" y="641.0" type="curve" smooth="yes"/>
      <point x="590.5" y="641.0"/>
      <point x="625.5" y="594.0"/>
      <point x="625.5" y="528.0" type="curve" smooth="yes"/>
      <point x="625.5" y="446.0"/>
      <point x="591.5" y="397.0"/>
      <point x="536.0" y="316.0" type="curve" smooth="yes"/>
      <point x="375.5" y="83.0" type="line"/>
      <point x="368.0" y="83.0" type="line"/>
      <point x="207.0" y="316.0" type="line" smooth="yes"/>
      <point x="152.0" y="397.0"/>
      <point x="118.0" y="446.0"/>
      <point x="118.0" y="528.0" type="curve" smooth="yes"/>
      <point x="118.0" y="594.0"/>
      <point x="152.5" y="641.0"/>
      <point x="214.5" y="641.0" type="curve" smooth="yes"/>
      <point x="289.5" y="641.0"/>
      <point x="341.5" y="541.0"/>
      <point x="368.0" y="461.0" type="curve"/>
    </contour>
    <contour>
      <point x="362.0" y="-10.0" type="line"/>
      <point x="381.0" y="-10.0" type="line"/>
      <point x="576.5" y="273.0" type="line" smooth="yes"/>
      <point x="647.0" y="375.0"/>
      <point x="685.5" y="437.0"/>
      <point x="685.5" y="535.0" type="curve" smooth="yes"/>
      <point x="685.5" y="632.0"/>
      <point x="631.0" y="710.0"/>
      <point x="535.5" y="710.0" type="curve" smooth="yes"/>
      <point x="458.5" y="710.0"/>
      <point x="403.5" y="657.0"/>
      <point x="372.0" y="569.0" type="curve"/>
      <point x="340.0" y="657.0"/>
      <point x="284.5" y="710.0"/>
      <point x="208.0" y="710.0" type="curve" smooth="yes"/>
      <point x="112.0" y="710.0"/>
      <point x="58.0" y="632.0"/>
      <point x="58.0" y="535.0" type="curve" smooth="yes"/>
      <point x="58.0" y="437.0"/>
      <point x="96.5" y="375.0"/>
      <point x="166.5" y="273.0" type="curve" smooth="yes"/>
    </contour>
  </outline>
</glyph>
<glyph name="hungarumlaut.uc" format="2">
  <advance width="412.5"/>
  <anchor x="222.0" y="694.0" name="_top"/>
  <outline>
    <contour>
      <point x="143.825" y="855.4" type="curve" smooth="yes"/>
      <point x="128.5125" y="779.8" type="line"/>
      <point x="128.5125" y="758.0" type="line"/>
      <point x="157.76500000000001" y="758.0" type="line"/>
      <point x="193.9325" y="809.8" type="line" smooth="yes"/>
      <point x="217.81" y="834.4"/>
      <point x="231.74" y="851.2"/>
      <point x="231.74" y="874.0" type="curve" smooth="yes"/>
      <point x="231.74" y="897.2"/>
      <point x="214.9075" y="911.8"/>
      <point x="192.1275" y="911.8" type="curve" smooth="yes"/>
      <point x="168.54" y="911.8"/>
      <point x="153.255" y="897.6"/>
    </contour>
    <contour>
      <point x="282.46" y="855.4" type="curve" smooth="yes"/>
      <point x="267.1" y="779.8" type="line"/>
      <point x="267.1" y="758.0" type="line"/>
      <point x="296.4" y="758.0" type="line"/>
      <point x="332.5675" y="809.8" type="line" smooth="yes"/>
      <point x="355.99249999999995" y="834.4"/>
      <point x="370.3275" y="851.2"/>
      <point x="370.3275" y="874.0" type="curve" smooth="yes"/>
      <point x="370.3275" y="897.2"/>
      <point x="353.5425" y="911.8"/>
      <point x="330.7625" y="911.8" type="curve" smooth="yes"/>
      <point x="306.72249999999997" y="911.8"/>
      <point x="291.89" y="897.6"/>
    </contour>
  </outline>
</glyph>
<glyph name="lira.alt" format="2">
  <advance width="462.0"/>
  <outline>
    <contour>
      <point x="429.045" y="0.0" type="line"/>
      <point x="429.045" y="193.6" type="line"/>
      <point x="378.695" y="193.6" type="line"/>
      <point x="371.3375" y="106.6" type="line" smooth="yes"/>
      <point x="367.6475" y="70.6"/>
      <point x="339.36" y="63.6"/>
      <point x="269.5725" y="63.6" type="curve" smooth="yes"/>
      <point x="73.11500000000001" y="63.6" type="line"/>
      <point x="105.66499999999999" y="53.0" type="line"/>
      <point x="178.0575" y="92.6"/>
      <point x="217.2275" y="175.2"/>
      <point x="217.2275" y="251.4" type="curve" smooth="yes"/>
      <point x="217.2275" y="356.6"/>
      <point x="164.53250000000003" y="411.8"/>
      <point x="164.53250000000003" y="524.8" type="curve" smooth="yes"/>
      <point x="164.53250000000003" y="612.0"/>
      <point x="208.5775581395875" y="664.0"/>
      <point x="264.475" y="664.0" type="curve" smooth="yes"/>
      <point x="316.8175" y="664.0"/>
      <point x="349.8225" y="635.4"/>
      <point x="372.755" y="606.4" type="curve"/>
      <point x="373.8925" y="624.4"/>
      <point x="365.985" y="646.6"/>
      <point x="342.5375" y="651.2" type="curve"/>
      <point x="342.5375" y="547.2" type="line"/>
      <point x="421.855" y="547.2" type="line"/>
      <point x="421.855" y="658.6" type="line"/>
      <point x="398.3075" y="683.8"/>
      <point x="344.2375" y="718.0"/>
      <point x="263.145" y="718.0" type="curve" smooth="yes"/>
      <point x="153.0837892375525" y="718.0"/>
      <point x="77.0575" y="639.0"/>
      <point x="77.0575" y="520.8" type="curve" smooth="yes"/>
      <point x="77.0575" y="408.4"/>
      <point x="148.89" y="341.6"/>
      <point x="148.89" y="239.4" type="curve" smooth="yes"/>
      <point x="148.89" y="159.8"/>
      <point x="87.5975" y="104.2"/>
      <point x="36.7675" y="65.4" type="curve"/>
      <point x="36.7675" y="0.0" type="line"/>
    </contour>
    <contour>
      <point x="36.72" y="446.4" type="line"/>
      <point x="36.72" y="398.8" type="line"/>
      <point x="338.89750000000004" y="398.8" type="line"/>
      <point x="338.89750000000004" y="446.4" type="line"/>
    </contour>
    <contour>
      <point x="36.72" y="291.4" type="line"/>
      <point x="36.72" y="243.8" type="line"/>
      <point x="338.89750000000004" y="243.8" type="line"/>
      <point x="338.89750000000004" y="291.4" type="line"/>
    </contour>
  </outline>
</glyph>
<glyph name="minus.sub" format="2">
  <advance width="330.76"/>
  <outline>
    <contour>
      <point x="289.38" y="102.2" type="line"/>
      <point x="41.4275" y="102.2" type="line"/>
      <point x="41.4275" y="57.8" type="line"/>
      <point x="289.38" y="57.8" type="line"/>
    </contour>
  </outline>
</glyph>
<glyph name="plus.sub" format="2">
  <advance width="330.76"/>
  <outline>
    <contour>
      <point x="140.4325" y="233.2" type="line"/>
      <point x="140.4325" y="-73.2" type="line"/>
      <point x="189.0175" y="-73.2" type="line"/>
      <point x="189.0175" y="233.2" type="line"/>
    </contour>
    <contour>
      <point x="289.38" y="102.2" type="line"/>
      <point x="41.4275" y="102.2" type="line"/>
      <point x="41.4275" y="57.8" type="line"/>
      <point x="289.38" y="57.8" type="line"/>
    </contour>
  </outline>
</glyph>
<glyph name="ringhalfleft" format="2">
  <advance width="412.5"/>
  <anchor x="206.0" y="566.0" name="_top"/>
  <outline>
    <contour>
      <point x="207.81" y="608.0" type="line"/>
      <point x="180.95" y="608.0"/>
      <point x="160.7575" y="629.2"/>
      <point x="160.7575" y="671.4" type="curve" smooth="yes"/>
      <point x="160.7575" y="713.6"/>
      <point x="180.9975" y="734.8"/>
      <point x="207.81" y="734.8" type="curve"/>
      <point x="207.81" y="768.0" type="line"/>
      <point x="152.7425" y="768.0"/>
      <point x="109.435" y="732.6"/>
      <point x="109.435" y="671.4" type="curve" smooth="yes"/>
      <point x="109.435" y="610.2"/>
      <point x="152.7425" y="574.8"/>
      <point x="207.81" y="574.8" type="curve"/>
    </contour>
  </outline>
</glyph>
<glyph name="schwa" format="2">
  <advance width="457.9875"/>
  <outline>
    <contour>
      <point x="211.1125" y="518.0" type="curve" smooth="yes"/>
      <point x="124.66499999999999" y="518.0"/>
      <point x="71.42999999999999" y="467.2"/>
      <point x="39.4075" y="402.0" type="curve"/>
      <point x="80.2825" y="363.8" type="line"/>
      <point x="103.735" y="411.2"/>
      <point x="140.4975" y="466.4"/>
      <point x="206.62" y="466.4" type="curve" smooth="yes"/>
      <point x="285.29" y="466.4"/>
      <point x="340.8" y="391.2"/>
      <point x="340.8" y="258.0" type="curve" smooth="yes"/>
      <point x="340.8" y="124.6"/>
      <point x="290.195" y="41.6"/>
      <point x="225.685" y="41.6" type="curve" smooth="yes"/>
      <point x="157.4125" y="41.6"/>
      <point x="126.45499999999998" y="106.8"/>
      <point x="124.955" y="241.2" type="curve"/>
      <point x="101.8825" y="220.2" type="line"/>
      <point x="374.0425" y="220.2" type="line"/>
      <point x="373.0425" y="271.0" type="line"/>
      <point x="36.195" y="271.0" type="line"/>
      <point x="37.195" y="85.0"/>
      <point x="102.7625" y="-10.0"/>
      <point x="226.01749999999998" y="-10.0" type="curve" smooth="yes"/>
      <point x="339.32" y="-10.0"/>
      <point x="427.9125" y="99.0"/>
      <point x="427.9125" y="256.0" type="curve" smooth="yes"/>
      <point x="427.9125" y="416.8"/>
      <point x="335.46" y="518.0"/>
    </contour>
  </outline>
</glyph>
<glyph name="six.lin" format="2">
  <advance width="462.0"/>
  <outline>
    <contour>
      <point x="374.66" y="686.0" type="line"/>
      <point x="221.8890202526025" y="652.40366823"/>
      <point x="118.8125" y="497.4"/>
      <point x="118.8125" y="293.4" type="curve" smooth="yes"/>
      <point x="118.8125" y="119.2"/>
      <point x="168.2628892215325" y="44.0"/>
      <point x="239.2875" y="44.0" type="curve" smooth="yes"/>
      <point x="303.06119718343" y="44.0"/>
      <point x="341.5925" y="120.8"/>
      <point x="341.5925" y="230.8" type="curve" smooth="yes"/>
      <point x="341.5925" y="331.6"/>
      <point x="311.7893110237325" y="400.2"/>
      <point x="250.125" y="400.2" type="curve" smooth="yes"/>
      <point x="183.4758928572075" y="400.2"/>
      <point x="136.1941264242475" y="333.4320327764"/>
      <point x="105.60249999999999" y="247.8" type="curve"/>
      <point x="97.03" y="294.0" type="line"/>
      <point x="119.13462907595999" y="373.01733035079997"/>
      <point x="179.719668949875" y="454.2"/>
      <point x="264.5425" y="454.2" type="curve" smooth="yes"/>
      <point x="359.3574061033225" y="454.2"/>
      <point x="430.9475" y="368.4"/>
      <point x="430.9475" y="230.8" type="curve" smooth="yes"/>
      <point x="430.9475" y="93.2"/>
      <point x="350.4204375" y="-10.0"/>
      <point x="239.7625" y="-10.0" type="curve" smooth="yes"/>
      <point x="121.054217557245" y="-10.0"/>
      <point x="31.052500000000002" y="94.0"/>
      <point x="31.052500000000002" y="293.4" type="curve" smooth="yes"/>
      <point x="31.052500000000002" y="511.0"/>
      <point x="166.0894789552975" y="702.4063412092"/>
      <point x="366.3275" y="740.0" type="curve"/>
    </contour>
  </outline>
</glyph>
<glyph name="six.old" format="2">
  <advance width="462.0"/>
  <outline>
    <contour>
      <point x="375.565" y="686.0" type="line"/>
      <point x="218.5529484329825" y="650.7578091708"/>
      <point x="115.1925" y="499.8"/>
      <point x="115.1925" y="297.4" type="curve" smooth="yes"/>
      <point x="115.1925" y="123.2"/>
      <point x="165.7907208586875" y="44.0"/>
      <point x="240.645" y="44.0" type="curve" smooth="yes"/>
      <point x="309.0389748200625" y="44.0"/>
      <point x="347.9275" y="120.0"/>
      <point x="347.9275" y="229.2" type="curve" smooth="yes"/>
      <point x="347.9275" y="330.0"/>
      <point x="317.57028" y="398.6"/>
      <point x="248.76749999999998" y="398.6" type="curve" smooth="yes"/>
      <point x="176.83827720196" y="398.6"/>
      <point x="131.6525" y="331.0"/>
      <point x="101.07749999999999" y="245.4" type="curve"/>
      <point x="91.60000000000001" y="292.4" type="line"/>
      <point x="113.6838550828675" y="371.3668300356"/>
      <point x="173.860069444545" y="452.6"/>
      <point x="262.7325" y="452.6" type="curve" smooth="yes"/>
      <point x="364.7112796210225" y="452.6"/>
      <point x="436.83" y="366.8"/>
      <point x="436.83" y="229.2" type="curve" smooth="yes"/>
      <point x="436.83" y="92.4"/>
      <point x="356.3717194090975" y="-10.0"/>
      <point x="241.12" y="-10.0" type="curve" smooth="yes"/>
      <point x="119.66313953501" y="-10.0"/>
      <point x="28.79" y="94.0"/>
      <point x="28.79" y="293.4" type="curve" smooth="yes"/>
      <point x="28.79" y="509.4"/>
      <point x="163.71990231736248" y="700.0783889772"/>
      <point x="366.78" y="740.0" type="curve"/>
    </contour>
  </outline>
</glyph>
<glyph name="tilde.uc" format="2">
  <advance width="412.5"/>
  <anchor x="206.0" y="694.0" name="_top"/>
  <outline>
    <contour>
      <point x="257.7375" y="766.4" type="curve" smooth="yes"/>
      <point x="304.5675" y="766.4"/>
      <point x="337.87552680756" y="804.2470035690125"/>
      <point x="350.28000000000003" y="868.8" type="curve"/>
      <point x="306.05" y="885.8" type="line"/>
      <point x="297.645" y="850.0371248738614"/>
      <point x="287.2875" y="827.4"/>
      <point x="266.12" y="827.4" type="curve" smooth="yes"/>
      <point x="232.5" y="827.4"/>
      <point x="208.6175" y="883.2"/>
      <point x="155.8575" y="883.2" type="curve" smooth="yes"/>
      <point x="105.48" y="883.2"/>
      <point x="78.9417113966345" y="848.0088877997013"/>
      <point x="67.125" y="779.6" type="curve"/>
      <point x="111.355" y="763.2" type="line"/>
      <point x="117.355" y="801.2136636313642"/>
      <point x="127.7125" y="823.0"/>
      <point x="147.9275" y="823.0" type="curve" smooth="yes"/>
      <point x="176.5" y="823.0"/>
      <point x="200.025" y="766.4"/>
    </contour>
  </outline>
</glyph>
